<?xml version="1.0" encoding="utf-8"?>
<!-- Generator: Adobe Illustrator 19.2.1, SVG Export Plug-In . SVG Version: 6.00 Build 0)  -->
<svg version="1.1" xmlns="http://www.w3.org/2000/svg" xmlns:xlink="http://www.w3.org/1999/xlink" x="0px" y="0px"
	 viewBox="0 0 581.7 88.1" style="enable-background:new 0 0 581.7 88.1;" xml:space="preserve">
<style type="text/css">
	.st0{fill:#FFFFFF;}
	.st1{fill:url(#SVGID_1_);}
	.st2{fill:url(#SVGID_2_);}
	.st3{fill:url(#SVGID_3_);}
	.st4{fill:url(#SVGID_4_);}
	.st5{fill:url(#SVGID_5_);}
	.st6{opacity:0.7;fill:url(#SVGID_6_);}
	.st7{opacity:0.7;fill:url(#SVGID_7_);}
	.st8{opacity:0.7;fill:url(#SVGID_8_);}
	.st9{opacity:0.7;fill:url(#SVGID_9_);}
	.st10{opacity:0.74;fill:url(#SVGID_10_);}
	.st11{opacity:0.74;fill:url(#SVGID_11_);}
	.st12{opacity:0.4;fill:url(#SVGID_12_);}
	.st13{opacity:0.4;fill:url(#SVGID_13_);}
	.st14{opacity:0.45;fill:url(#SVGID_14_);}
	.st15{opacity:0.36;fill:url(#SVGID_15_);}
	.st16{fill:url(#SVGID_16_);}
	.st17{fill:url(#SVGID_17_);}
	.st18{opacity:0.45;fill:url(#SVGID_18_);}
	.st19{opacity:0.36;fill:url(#SVGID_19_);}
	.st20{opacity:0.5;}
	.st21{fill:url(#SVGID_20_);}
	.st22{fill:url(#SVGID_21_);}
	.st23{opacity:0.45;fill:url(#SVGID_22_);}
	.st24{opacity:0.36;fill:url(#SVGID_23_);}
	.st25{fill:url(#SVGID_24_);}
	.st26{fill:url(#SVGID_25_);}
	.st27{opacity:0.45;fill:url(#SVGID_26_);}
	.st28{opacity:0.36;fill:url(#SVGID_27_);}
	.st29{fill:url(#SVGID_28_);}
	.st30{fill:url(#SVGID_29_);}
	.st31{opacity:0.35;fill:url(#SVGID_30_);}
	.st32{opacity:0.3;fill:url(#SVGID_31_);}
	.st33{opacity:0.25;fill:url(#SVGID_32_);}
	.st34{opacity:0.2;fill:url(#SVGID_33_);}
	.st35{opacity:0.2;fill:url(#SVGID_34_);}
	.st36{opacity:0.2;fill:url(#SVGID_35_);}
	.st37{opacity:0.35;fill:url(#SVGID_36_);}
	.st38{opacity:0.47;fill:url(#SVGID_37_);}
	.st39{opacity:0.63;clip-path:url(#SVGID_39_);}
	.st40{fill:url(#SVGID_40_);}
	.st41{opacity:0.8;}
	.st42{opacity:0.63;clip-path:url(#SVGID_42_);}
	.st43{fill:url(#SVGID_43_);}
	.st44{opacity:0.6;}
	.st45{opacity:0.63;clip-path:url(#SVGID_45_);}
	.st46{fill:url(#SVGID_46_);}
	.st47{opacity:0.4;}
	.st48{opacity:0.63;clip-path:url(#SVGID_48_);}
	.st49{fill:url(#SVGID_49_);}
	.st50{opacity:0.3;}
	.st51{opacity:0.63;clip-path:url(#SVGID_51_);}
	.st52{fill:url(#SVGID_52_);}
	.st53{opacity:0.63;clip-path:url(#SVGID_54_);}
	.st54{fill:url(#SVGID_55_);}
	.st55{opacity:0.63;clip-path:url(#SVGID_57_);}
	.st56{fill:url(#SVGID_58_);}
	.st57{opacity:0.63;clip-path:url(#SVGID_60_);}
	.st58{fill:url(#SVGID_61_);}
	.st59{fill:none;}
	.st60{fill:#373644;}
	.st61{font-family:'Oswald-Heavy';}
	.st62{font-size:30px;}
	.st63{letter-spacing:8;}
</style>
<g id="Background">
	<rect x="-180.2" y="-198.2" class="st0" width="800" height="800"/>
</g>
<g id="Objects">
	<g>
		<g>
			<g>
				
					<linearGradient id="SVGID_1_" gradientUnits="userSpaceOnUse" x1="173.9571" y1="-34.0271" x2="240.251" y2="-34.0271" gradientTransform="matrix(0.7071 -0.7071 0.7071 0.7071 -78.4375 214.4948)">
					<stop  offset="0" style="stop-color:#3FC8E8"/>
					<stop  offset="1" style="stop-color:#3FC8E8"/>
				</linearGradient>
				<path class="st1" d="M43.9,86.5c-3.6,0-6.8-1.9-9.6-5.5c-2-2.7-3.6-6.1-5-9.3c-1.5-3.3-3.1-6.7-4.7-8.3
					c-1.6-1.6-5.1-3.2-8.4-4.7c-3.3-1.5-6.6-3-9.4-5c-3.7-2.7-5.5-5.9-5.5-9.5c0-3.6,1.9-6.8,5.5-9.5c2.7-2,6.1-3.5,9.4-5
					c3.3-1.5,6.7-3.1,8.4-4.7c1.6-1.6,3.2-5,4.7-8.3c1.5-3.3,3-6.6,5-9.3c2.7-3.7,5.9-5.5,9.6-5.5c3.6,0,6.8,1.9,9.6,5.5
					c2,2.7,3.6,6.1,5,9.3c1.5,3.3,3.1,6.7,4.7,8.3c1.6,1.6,5.1,3.2,8.4,4.7c3.3,1.5,6.6,3,9.4,5c3.7,2.7,5.5,5.9,5.5,9.5
					c0,3.6-1.9,6.8-5.5,9.5c-2.7,2-6.1,3.5-9.4,5c-3.3,1.5-6.7,3.1-8.4,4.7c-1.6,1.6-3.2,5-4.7,8.3c-1.5,3.3-3,6.6-5,9.3
					C50.8,84.6,47.6,86.5,43.9,86.5z M43.9,8.9c-3,0-5.6,5.6-7.8,10.5c-1.9,4.1-3.6,7.9-6.2,10.5c-2.6,2.6-6.4,4.3-10.5,6.2
					C14.4,38.4,8.8,41,8.8,44c0,3,5.6,5.6,10.5,7.8c4.1,1.9,7.9,3.6,10.5,6.2c2.6,2.6,4.4,6.4,6.2,10.5c2.3,4.9,4.8,10.5,7.8,10.5
					c3,0,5.6-5.6,7.8-10.5c1.9-4.1,3.6-7.9,6.2-10.5c2.6-2.6,6.4-4.3,10.5-6.2c4.9-2.3,10.5-4.8,10.5-7.8c0-3-5.6-5.6-10.5-7.8
					c-4.1-1.9-7.9-3.6-10.5-6.2c-2.6-2.6-4.4-6.4-6.2-10.5C49.5,14.5,47,8.9,43.9,8.9z"/>
				<g>
					
						<linearGradient id="SVGID_2_" gradientUnits="userSpaceOnUse" x1="212.8553" y1="-43.0997" x2="212.8553" y2="-76.5007" gradientTransform="matrix(0.7071 -0.7071 0.7071 0.7071 -78.4375 214.4948)">
						<stop  offset="0" style="stop-color:#2C394C"/>
						<stop  offset="1" style="stop-color:#445B72"/>
					</linearGradient>
					<path class="st2" d="M16.3,29.4c1.1-0.5,2.2-1,3.3-1.5c-1.2-3.7-1.9-7.2-0.4-8.7c2.1-2.1,7.9,0,13,1.9c4.2,1.6,8.2,3,11.8,3
						c2.8,0,5.9-0.9,9-2c-0.4-0.9-0.8-1.7-1.2-2.6c-0.6-1.4-1.3-2.8-2-4.1c-2.2,0.8-4.3,1.4-5.9,1.4c-2.3,0-5.8-1.3-9.2-2.6
						c-3.4-1.2-6.8-2.5-10.2-3c-4.5-0.7-8.1,0.3-10.7,2.9c-2.6,2.6-3.5,6.2-2.9,10.7c0.3,2.1,0.9,4.3,1.7,6.4
						C13.9,30.5,15.1,30,16.3,29.4z"/>
					
						<linearGradient id="SVGID_3_" gradientUnits="userSpaceOnUse" x1="181.2863" y1="-21.0985" x2="181.2863" y2="-58.4695" gradientTransform="matrix(0.7071 -0.7071 0.7071 0.7071 -78.4375 214.4948)">
						<stop  offset="0" style="stop-color:#2C394C"/>
						<stop  offset="1" style="stop-color:#445B72"/>
					</linearGradient>
					<path class="st3" d="M29.3,71.6c-0.5-1.1-1-2.2-1.5-3.2c-3.7,1.2-7.2,1.9-8.7,0.4c-2.1-2.1,0-7.9,1.9-13
						c1.6-4.2,3.1-8.2,3.1-11.8c0-2.8-0.9-5.9-2-9.1c-0.9,0.4-1.8,0.8-2.7,1.2c-1.4,0.6-2.8,1.3-4.1,1.9c0.8,2.3,1.4,4.4,1.4,5.9
						c0,2.3-1.3,5.8-2.6,9.2c-1.3,3.4-2.6,6.8-3.1,10.2c-0.7,4.5,0.3,8.1,2.8,10.6c2.6,2.6,6.1,3.5,10.6,2.8c2.1-0.3,4.3-1,6.5-1.7
						C30.4,74,29.9,72.8,29.3,71.6z"/>
					
						<linearGradient id="SVGID_4_" gradientUnits="userSpaceOnUse" x1="232.9218" y1="-9.5846" x2="232.9218" y2="-46.9556" gradientTransform="matrix(0.7071 -0.7071 0.7071 0.7071 -78.4375 214.4948)">
						<stop  offset="0" style="stop-color:#2C394C"/>
						<stop  offset="1" style="stop-color:#445B72"/>
					</linearGradient>
					<path class="st4" d="M63.4,11.1c-2.1,0.3-4.3,1-6.5,1.7c0.6,1.2,1.1,2.4,1.7,3.6c0.5,1.1,1,2.2,1.5,3.2
						c3.7-1.2,7.2-1.9,8.7-0.4c2.1,2.1,0,7.9-1.9,13c-1.6,4.2-3.1,8.2-3.1,11.8c0,2.8,0.9,5.9,2,9.1c0.9-0.4,1.8-0.8,2.7-1.2
						c1.4-0.6,2.8-1.3,4.1-1.9c-0.8-2.3-1.4-4.4-1.4-5.9c0-2.3,1.3-5.8,2.6-9.2c1.3-3.4,2.6-6.8,3.1-10.2c0.7-4.5-0.3-8.1-2.8-10.6
						C71.5,11.3,67.9,10.4,63.4,11.1z"/>
					
						<linearGradient id="SVGID_5_" gradientUnits="userSpaceOnUse" x1="201.3528" y1="8.4466" x2="201.3528" y2="-24.9544" gradientTransform="matrix(0.7071 -0.7071 0.7071 0.7071 -78.4375 214.4948)">
						<stop  offset="0" style="stop-color:#2C394C"/>
						<stop  offset="1" style="stop-color:#445B72"/>
					</linearGradient>
					<path class="st5" d="M71.6,58.6c-1.1,0.5-2.2,1-3.3,1.5c1.2,3.7,1.9,7.2,0.4,8.7c-2.1,2.1-7.9,0-13-1.9c-4.2-1.6-8.2-3-11.8-3
						c-2.8,0-5.9,0.9-9,2c0.4,0.9,0.8,1.7,1.2,2.6c0.6,1.4,1.3,2.8,2,4.1c2.2-0.8,4.3-1.4,5.9-1.4c2.3,0,5.8,1.3,9.2,2.6
						c3.4,1.2,6.8,2.5,10.2,3c4.5,0.7,8.1-0.3,10.7-2.9c2.6-2.6,3.5-6.2,2.9-10.7c-0.3-2.1-0.9-4.3-1.7-6.4
						C74,57.5,72.8,58,71.6,58.6z"/>
				</g>
				<g>
					
						<linearGradient id="SVGID_6_" gradientUnits="userSpaceOnUse" x1="206.6929" y1="3.0475" x2="216.2939" y2="-6.5534" gradientTransform="matrix(0.7071 -0.7071 0.7071 0.7071 -78.4375 214.4948)">
						<stop  offset="0" style="stop-color:#242F3D"/>
						<stop  offset="1" style="stop-color:#FFFFFF;stop-opacity:0"/>
					</linearGradient>
					<path class="st6" d="M62.7,69.2c0,0,14.7,4.6,14.3-3.5c0,0,0.2-2.6-1.9-8.8l-6.8,3.2c0,0,1.9,5.4,1.1,7.4
						C68.7,69.5,67.1,70.3,62.7,69.2z"/>
					
						<linearGradient id="SVGID_7_" gradientUnits="userSpaceOnUse" x1="498.4786" y1="251.1599" x2="508.0796" y2="241.5589" gradientTransform="matrix(-0.7071 -0.7071 0.7071 -0.7071 245.3304 548.1357)">
						<stop  offset="0" style="stop-color:#242F3D"/>
						<stop  offset="1" style="stop-color:#FFFFFF;stop-opacity:0"/>
					</linearGradient>
					<path class="st7" d="M69.1,25.2c0,0,4.6-14.7-3.5-14.3c0,0-2.6-0.2-8.8,1.9l3.2,6.8c0,0,5.4-1.9,7.4-1.1
						C69.5,19.2,70.2,20.8,69.1,25.2z"/>
					
						<linearGradient id="SVGID_8_" gradientUnits="userSpaceOnUse" x1="250.3662" y1="542.9456" x2="259.9671" y2="533.3447" gradientTransform="matrix(-0.7071 0.7071 -0.7071 -0.7071 578.9713 224.3679)">
						<stop  offset="0" style="stop-color:#242F3D"/>
						<stop  offset="1" style="stop-color:#FFFFFF;stop-opacity:0"/>
					</linearGradient>
					<path class="st8" d="M25.2,18.8c0,0-14.7-4.6-14.3,3.5c0,0-0.2,2.6,1.9,8.8l6.8-3.2c0,0-1.9-5.4-1.1-7.4
						C19.2,18.5,20.8,17.7,25.2,18.8z"/>
					
						<linearGradient id="SVGID_9_" gradientUnits="userSpaceOnUse" x1="-41.4194" y1="294.8332" x2="-31.8185" y2="285.2322" gradientTransform="matrix(0.7071 0.7071 -0.7071 0.7071 255.2034 -109.2731)">
						<stop  offset="0" style="stop-color:#242F3D"/>
						<stop  offset="1" style="stop-color:#FFFFFF;stop-opacity:0"/>
					</linearGradient>
					<path class="st9" d="M18.7,62.7c0,0-4.6,14.7,3.5,14.3c0,0,2.6,0.2,8.8-1.9l-3.2-6.8c0,0-5.4,1.9-7.4,1.1
						C18.4,68.8,17.7,67.2,18.7,62.7z"/>
				</g>
				<g>
					
						<linearGradient id="SVGID_10_" gradientUnits="userSpaceOnUse" x1="22.1293" y1="97.4771" x2="31.7301" y2="87.8762" gradientTransform="matrix(1 0 0 1 21.4049 -16.4118)">
						<stop  offset="0" style="stop-color:#1C75BC"/>
						<stop  offset="1" style="stop-color:#FFFFFF;stop-opacity:0"/>
					</linearGradient>
					<path class="st10" d="M39.4,75.1c0,0,7.1,13.7,12.6,7.7c0,0,1.9-1.7,4.9-7.5l-7-2.6c0,0-2.5,5.1-4.5,6
						C43.4,79.5,41.8,79,39.4,75.1z"/>
					
						<linearGradient id="SVGID_11_" gradientUnits="userSpaceOnUse" x1="403.8912" y1="66.5957" x2="413.492" y2="56.9948" gradientTransform="matrix(0 -1 1 0 14.4238 448.2933)">
						<stop  offset="0" style="stop-color:#1C75BC"/>
						<stop  offset="1" style="stop-color:#FFFFFF;stop-opacity:0"/>
					</linearGradient>
					<path class="st11" d="M75,48.6c0,0,13.7-7.1,7.7-12.6c0,0-1.7-1.9-7.5-4.9l-2.6,7c0,0,5.1,2.5,6,4.5
						C79.5,44.5,78.9,46.2,75,48.6z"/>
					
						<linearGradient id="SVGID_12_" gradientUnits="userSpaceOnUse" x1="434.7726" y1="448.3576" x2="444.3734" y2="438.7567" gradientTransform="matrix(-1 0 0 -1 479.1289 455.2744)">
						<stop  offset="0" style="stop-color:#1C75BC"/>
						<stop  offset="1" style="stop-color:#FFFFFF;stop-opacity:0"/>
					</linearGradient>
					<path class="st12" d="M48.5,12.9c0,0-7.1-13.7-12.6-7.7c0,0-1.9,1.7-4.9,7.5l7,2.6c0,0,2.5-5.1,4.5-6
						C44.5,8.4,46.1,9,48.5,12.9z"/>
					
						<linearGradient id="SVGID_13_" gradientUnits="userSpaceOnUse" x1="53.0107" y1="479.239" x2="62.6115" y2="469.6381" gradientTransform="matrix(0 1 -1 0 486.11 -9.4307)">
						<stop  offset="0" style="stop-color:#1C75BC"/>
						<stop  offset="1" style="stop-color:#FFFFFF;stop-opacity:0"/>
					</linearGradient>
					<path class="st13" d="M12.9,39.4c0,0-13.7,7.1-7.7,12.6c0,0,1.7,1.9,7.5,4.9l2.6-7c0,0-5.1-2.5-6-4.5
						C8.4,43.5,9,41.8,12.9,39.4z"/>
				</g>
				<g>
					
						<linearGradient id="SVGID_14_" gradientUnits="userSpaceOnUse" x1="226.8666" y1="-9.5846" x2="226.8666" y2="-25.009" gradientTransform="matrix(0.7071 -0.7071 0.7071 0.7071 -78.4375 214.4948)">
						<stop  offset="0" style="stop-color:#242F3D"/>
						<stop  offset="0.1224" style="stop-color:#49525D;stop-opacity:0.8776"/>
						<stop  offset="0.3568" style="stop-color:#898F96;stop-opacity:0.6432"/>
						<stop  offset="0.5703" style="stop-color:#BCBFC3;stop-opacity:0.4297"/>
						<stop  offset="0.7553" style="stop-color:#E0E2E4;stop-opacity:0.2447"/>
						<stop  offset="0.9048" style="stop-color:#F7F7F8;stop-opacity:9.520561e-02"/>
						<stop  offset="1" style="stop-color:#FFFFFF;stop-opacity:0"/>
					</linearGradient>
					<path class="st14" d="M65.9,34.8c-1.2,3.2-2.1,6.3-2.1,9.2c0,2.8,0.9,5.9,2,9.1c0.9-0.4,1.8-0.8,2.7-1.2
						c1.4-0.6,2.8-1.3,4.1-1.9c-0.8-2.3-1.4-4.4-1.4-5.9c0-2.3,1.3-5.8,2.6-9.2c0.4-0.9,0.7-1.9,1.1-2.9L65.9,34.8z"/>
					
						<linearGradient id="SVGID_15_" gradientUnits="userSpaceOnUse" x1="213.2401" y1="8.0414" x2="213.2401" y2="-5.3754" gradientTransform="matrix(0.7071 -0.7071 0.7071 0.7071 -78.4375 214.4948)">
						<stop  offset="0" style="stop-color:#FFFFFF;stop-opacity:0"/>
						<stop  offset="9.520561e-02" style="stop-color:#F7F7F8;stop-opacity:9.520561e-02"/>
						<stop  offset="0.2447" style="stop-color:#E0E2E4;stop-opacity:0.2447"/>
						<stop  offset="0.4297" style="stop-color:#BCBFC3;stop-opacity:0.4297"/>
						<stop  offset="0.6432" style="stop-color:#898F96;stop-opacity:0.6432"/>
						<stop  offset="0.8776" style="stop-color:#49525D;stop-opacity:0.8776"/>
						<stop  offset="1" style="stop-color:#242F3D"/>
					</linearGradient>
					<path class="st15" d="M71.6,58.6c-1.1,0.5-2.2,1-3.3,1.5c1.2,3.7,1.9,7.2,0.4,8.7c-0.2,0.2-0.3,0.3-0.5,0.4l7.5,2.6
						c1.2-2.3,1.6-5.1,1.1-8.4c-0.3-2.1-0.9-4.3-1.7-6.4C74,57.5,72.8,58,71.6,58.6z"/>
				</g>
				<g>
					
						<linearGradient id="SVGID_16_" gradientUnits="userSpaceOnUse" x1="424.0647" y1="53.9637" x2="424.0647" y2="38.5395" gradientTransform="matrix(0 -1 1 0 14.4238 448.2933)">
						<stop  offset="0" style="stop-color:#00A79D"/>
						<stop  offset="0.2114" style="stop-color:#48C0B9;stop-opacity:0.7886"/>
						<stop  offset="0.4227" style="stop-color:#89D6D2;stop-opacity:0.5773"/>
						<stop  offset="0.6144" style="stop-color:#BCE8E5;stop-opacity:0.3856"/>
						<stop  offset="0.7804" style="stop-color:#E0F4F3;stop-opacity:0.2196"/>
						<stop  offset="0.9146" style="stop-color:#F7FCFC;stop-opacity:8.541995e-02"/>
						<stop  offset="1" style="stop-color:#FFFFFF;stop-opacity:0"/>
					</linearGradient>
					<path class="st16" d="M53,22c1.5,3.1,3,5.9,5,7.9c2,2,4.8,3.5,7.9,5c0.3-0.9,0.7-1.8,1-2.8c0.5-1.4,1.1-2.8,1.5-4.2
						c-2.1-1-4.1-2.1-5.2-3.2c-1.6-1.6-3.2-5.1-4.7-8.4c-0.4-0.9-0.8-1.8-1.3-2.8L53,22z"/>
					
						<linearGradient id="SVGID_17_" gradientUnits="userSpaceOnUse" x1="410.4383" y1="71.5895" x2="410.4383" y2="58.1728" gradientTransform="matrix(0 -1 1 0 14.4238 448.2933)">
						<stop  offset="0" style="stop-color:#FFFFFF;stop-opacity:0"/>
						<stop  offset="8.541995e-02" style="stop-color:#F7FCFC;stop-opacity:8.541995e-02"/>
						<stop  offset="0.2196" style="stop-color:#E0F4F3;stop-opacity:0.2196"/>
						<stop  offset="0.3856" style="stop-color:#BCE8E5;stop-opacity:0.3856"/>
						<stop  offset="0.5773" style="stop-color:#89D6D2;stop-opacity:0.5773"/>
						<stop  offset="0.7886" style="stop-color:#48C0B9;stop-opacity:0.7886"/>
						<stop  offset="1" style="stop-color:#00A79D"/>
					</linearGradient>
					<path class="st17" d="M73.8,34.7c-0.4,1.1-0.8,2.3-1.2,3.4c3.5,1.8,6.4,3.7,6.4,5.9c0,0.2,0,0.4-0.1,0.7l7.1-3.5
						c-0.7-2.5-2.4-4.7-5.1-6.7c-1.7-1.3-3.7-2.4-5.8-3.4C74.7,32.3,74.3,33.5,73.8,34.7z"/>
				</g>
				<g>
					
						<linearGradient id="SVGID_18_" gradientUnits="userSpaceOnUse" x1="518.6523" y1="238.5278" x2="518.6523" y2="223.1034" gradientTransform="matrix(-0.7071 -0.7071 0.7071 -0.7071 245.3304 548.1357)">
						<stop  offset="0" style="stop-color:#242F3D"/>
						<stop  offset="0.1224" style="stop-color:#49525D;stop-opacity:0.8776"/>
						<stop  offset="0.3568" style="stop-color:#898F96;stop-opacity:0.6432"/>
						<stop  offset="0.5703" style="stop-color:#BCBFC3;stop-opacity:0.4297"/>
						<stop  offset="0.7553" style="stop-color:#E0E2E4;stop-opacity:0.2447"/>
						<stop  offset="0.9048" style="stop-color:#F7F7F8;stop-opacity:9.520561e-02"/>
						<stop  offset="1" style="stop-color:#FFFFFF;stop-opacity:0"/>
					</linearGradient>
					<path class="st18" d="M34.8,22c3.2,1.2,6.3,2.1,9.2,2.1c2.8,0,5.9-0.9,9.1-2c-0.4-0.9-0.8-1.8-1.2-2.7
						c-0.6-1.4-1.3-2.8-1.9-4.1c-2.3,0.8-4.4,1.4-5.9,1.4c-2.3,0-5.8-1.3-9.2-2.6c-0.9-0.4-1.9-0.7-2.9-1.1L34.8,22z"/>
					
						<linearGradient id="SVGID_19_" gradientUnits="userSpaceOnUse" x1="505.0258" y1="256.1538" x2="505.0258" y2="242.737" gradientTransform="matrix(-0.7071 -0.7071 0.7071 -0.7071 245.3304 548.1357)">
						<stop  offset="0" style="stop-color:#FFFFFF;stop-opacity:0"/>
						<stop  offset="9.520561e-02" style="stop-color:#F7F7F8;stop-opacity:9.520561e-02"/>
						<stop  offset="0.2447" style="stop-color:#E0E2E4;stop-opacity:0.2447"/>
						<stop  offset="0.4297" style="stop-color:#BCBFC3;stop-opacity:0.4297"/>
						<stop  offset="0.6432" style="stop-color:#898F96;stop-opacity:0.6432"/>
						<stop  offset="0.8776" style="stop-color:#49525D;stop-opacity:0.8776"/>
						<stop  offset="1" style="stop-color:#242F3D"/>
					</linearGradient>
					<path class="st19" d="M58.5,16.3c0.5,1.1,1,2.2,1.5,3.3c3.7-1.2,7.2-1.9,8.7-0.4c0.2,0.2,0.3,0.3,0.4,0.5l2.6-7.5
						c-2.3-1.2-5.1-1.6-8.4-1.1c-2.1,0.3-4.3,0.9-6.4,1.7C57.4,14,58,15.1,58.5,16.3z"/>
				</g>
				<g class="st20">
					
						<linearGradient id="SVGID_20_" gradientUnits="userSpaceOnUse" x1="454.946" y1="435.7256" x2="454.946" y2="420.3014" gradientTransform="matrix(-1 0 0 -1 479.1289 455.2744)">
						<stop  offset="0" style="stop-color:#00A79D"/>
						<stop  offset="0.2114" style="stop-color:#48C0B9;stop-opacity:0.7886"/>
						<stop  offset="0.4227" style="stop-color:#89D6D2;stop-opacity:0.5773"/>
						<stop  offset="0.6144" style="stop-color:#BCE8E5;stop-opacity:0.3856"/>
						<stop  offset="0.7804" style="stop-color:#E0F4F3;stop-opacity:0.2196"/>
						<stop  offset="0.9146" style="stop-color:#F7FCFC;stop-opacity:8.541995e-02"/>
						<stop  offset="1" style="stop-color:#FFFFFF;stop-opacity:0"/>
					</linearGradient>
					<path class="st21" d="M21.9,35c3.1-1.5,5.9-3,7.9-5c2-2,3.5-4.8,5-7.9c-0.9-0.3-1.8-0.7-2.8-1c-1.4-0.5-2.8-1.1-4.2-1.5
						c-1,2.1-2.1,4.1-3.2,5.2c-1.6,1.6-5.1,3.2-8.4,4.7c-0.9,0.4-1.8,0.8-2.8,1.3L21.9,35z"/>
					
						<linearGradient id="SVGID_21_" gradientUnits="userSpaceOnUse" x1="441.3197" y1="453.3514" x2="441.3197" y2="439.9348" gradientTransform="matrix(-1 0 0 -1 479.1289 455.2744)">
						<stop  offset="0" style="stop-color:#FFFFFF;stop-opacity:0"/>
						<stop  offset="8.541995e-02" style="stop-color:#F7FCFC;stop-opacity:8.541995e-02"/>
						<stop  offset="0.2196" style="stop-color:#E0F4F3;stop-opacity:0.2196"/>
						<stop  offset="0.3856" style="stop-color:#BCE8E5;stop-opacity:0.3856"/>
						<stop  offset="0.5773" style="stop-color:#89D6D2;stop-opacity:0.5773"/>
						<stop  offset="0.7886" style="stop-color:#48C0B9;stop-opacity:0.7886"/>
						<stop  offset="1" style="stop-color:#00A79D"/>
					</linearGradient>
					<path class="st22" d="M34.7,14.1c1.1,0.4,2.3,0.8,3.4,1.2c1.8-3.5,3.7-6.4,5.9-6.4c0.2,0,0.4,0,0.7,0.1l-3.5-7.1
						c-2.5,0.7-4.7,2.4-6.7,5.1c-1.3,1.7-2.4,3.7-3.4,5.8C32.2,13.2,33.5,13.7,34.7,14.1z"/>
				</g>
				<g class="st20">
					
						<linearGradient id="SVGID_22_" gradientUnits="userSpaceOnUse" x1="270.5399" y1="530.3135" x2="270.5399" y2="514.8892" gradientTransform="matrix(-0.7071 0.7071 -0.7071 -0.7071 578.9713 224.3679)">
						<stop  offset="0" style="stop-color:#242F3D"/>
						<stop  offset="0.1224" style="stop-color:#49525D;stop-opacity:0.8776"/>
						<stop  offset="0.3568" style="stop-color:#898F96;stop-opacity:0.6432"/>
						<stop  offset="0.5703" style="stop-color:#BCBFC3;stop-opacity:0.4297"/>
						<stop  offset="0.7553" style="stop-color:#E0E2E4;stop-opacity:0.2447"/>
						<stop  offset="0.9048" style="stop-color:#F7F7F8;stop-opacity:9.520561e-02"/>
						<stop  offset="1" style="stop-color:#FFFFFF;stop-opacity:0"/>
					</linearGradient>
					<path class="st23" d="M22,53.2c1.2-3.2,2.1-6.3,2.1-9.2c0-2.8-0.9-5.9-2-9.1c-0.9,0.4-1.8,0.8-2.7,1.2
						c-1.4,0.6-2.8,1.3-4.1,1.9c0.8,2.3,1.4,4.4,1.4,5.9c0,2.3-1.3,5.8-2.6,9.2c-0.4,0.9-0.7,1.9-1.1,2.9L22,53.2z"/>
					
						<linearGradient id="SVGID_23_" gradientUnits="userSpaceOnUse" x1="256.9134" y1="547.9395" x2="256.9134" y2="534.5227" gradientTransform="matrix(-0.7071 0.7071 -0.7071 -0.7071 578.9713 224.3679)">
						<stop  offset="0" style="stop-color:#FFFFFF;stop-opacity:0"/>
						<stop  offset="9.520561e-02" style="stop-color:#F7F7F8;stop-opacity:9.520561e-02"/>
						<stop  offset="0.2447" style="stop-color:#E0E2E4;stop-opacity:0.2447"/>
						<stop  offset="0.4297" style="stop-color:#BCBFC3;stop-opacity:0.4297"/>
						<stop  offset="0.6432" style="stop-color:#898F96;stop-opacity:0.6432"/>
						<stop  offset="0.8776" style="stop-color:#49525D;stop-opacity:0.8776"/>
						<stop  offset="1" style="stop-color:#242F3D"/>
					</linearGradient>
					<path class="st24" d="M16.3,29.4c1.1-0.5,2.2-1,3.3-1.5c-1.2-3.7-1.9-7.2-0.4-8.7c0.2-0.2,0.3-0.3,0.5-0.4l-7.5-2.6
						c-1.2,2.3-1.6,5.1-1.1,8.4c0.3,2.1,0.9,4.3,1.7,6.4C13.9,30.5,15.1,30,16.3,29.4z"/>
				</g>
				<g>
					
						<linearGradient id="SVGID_24_" gradientUnits="userSpaceOnUse" x1="73.1842" y1="466.607" x2="73.1842" y2="451.1827" gradientTransform="matrix(0 1 -1 0 486.11 -9.4307)">
						<stop  offset="0" style="stop-color:#00A79D"/>
						<stop  offset="0.2114" style="stop-color:#48C0B9;stop-opacity:0.7886"/>
						<stop  offset="0.4227" style="stop-color:#89D6D2;stop-opacity:0.5773"/>
						<stop  offset="0.6144" style="stop-color:#BCE8E5;stop-opacity:0.3856"/>
						<stop  offset="0.7804" style="stop-color:#E0F4F3;stop-opacity:0.2196"/>
						<stop  offset="0.9146" style="stop-color:#F7FCFC;stop-opacity:8.541995e-02"/>
						<stop  offset="1" style="stop-color:#FFFFFF;stop-opacity:0"/>
					</linearGradient>
					<path class="st25" d="M34.9,66c-1.5-3.1-3-5.9-5-7.9c-2-2-4.8-3.5-7.9-5c-0.3,0.9-0.7,1.8-1,2.8c-0.5,1.4-1.1,2.8-1.5,4.2
						c2.1,1,4.1,2.1,5.2,3.2c1.6,1.6,3.2,5.1,4.7,8.4c0.4,0.9,0.8,1.8,1.3,2.8L34.9,66z"/>
					
						<linearGradient id="SVGID_25_" gradientUnits="userSpaceOnUse" x1="59.5578" y1="484.2328" x2="59.5578" y2="470.8161" gradientTransform="matrix(0 1 -1 0 486.11 -9.4307)">
						<stop  offset="0" style="stop-color:#FFFFFF;stop-opacity:0"/>
						<stop  offset="8.541995e-02" style="stop-color:#F7FCFC;stop-opacity:8.541995e-02"/>
						<stop  offset="0.2196" style="stop-color:#E0F4F3;stop-opacity:0.2196"/>
						<stop  offset="0.3856" style="stop-color:#BCE8E5;stop-opacity:0.3856"/>
						<stop  offset="0.5773" style="stop-color:#89D6D2;stop-opacity:0.5773"/>
						<stop  offset="0.7886" style="stop-color:#48C0B9;stop-opacity:0.7886"/>
						<stop  offset="1" style="stop-color:#00A79D"/>
					</linearGradient>
					<path class="st26" d="M14.1,53.3c0.4-1.1,0.8-2.3,1.2-3.4c-3.5-1.8-6.4-3.7-6.4-5.9c0-0.2,0-0.4,0.1-0.7l-7.1,3.5
						c0.7,2.5,2.4,4.7,5.1,6.7c1.7,1.3,3.7,2.4,5.8,3.4C13.2,55.7,13.6,54.5,14.1,53.3z"/>
				</g>
				<g>
					
						<linearGradient id="SVGID_26_" gradientUnits="userSpaceOnUse" x1="-21.2458" y1="282.2011" x2="-21.2458" y2="266.7767" gradientTransform="matrix(0.7071 0.7071 -0.7071 0.7071 255.2034 -109.2731)">
						<stop  offset="0" style="stop-color:#242F3D"/>
						<stop  offset="0.1224" style="stop-color:#49525D;stop-opacity:0.8776"/>
						<stop  offset="0.3568" style="stop-color:#898F96;stop-opacity:0.6432"/>
						<stop  offset="0.5703" style="stop-color:#BCBFC3;stop-opacity:0.4297"/>
						<stop  offset="0.7553" style="stop-color:#E0E2E4;stop-opacity:0.2447"/>
						<stop  offset="0.9048" style="stop-color:#F7F7F8;stop-opacity:9.520561e-02"/>
						<stop  offset="1" style="stop-color:#FFFFFF;stop-opacity:0"/>
					</linearGradient>
					<path class="st27" d="M53.1,65.9c-3.2-1.2-6.3-2.1-9.2-2.1c-2.8,0-5.9,0.9-9.1,2c0.4,0.9,0.8,1.8,1.2,2.7
						c0.6,1.4,1.3,2.8,1.9,4.1c2.3-0.8,4.4-1.4,5.9-1.4c2.3,0,5.8,1.3,9.2,2.6c0.9,0.4,1.9,0.7,2.9,1.1L53.1,65.9z"/>
					
						<linearGradient id="SVGID_27_" gradientUnits="userSpaceOnUse" x1="-34.8722" y1="299.8271" x2="-34.8722" y2="286.4102" gradientTransform="matrix(0.7071 0.7071 -0.7071 0.7071 255.2034 -109.2731)">
						<stop  offset="0" style="stop-color:#FFFFFF;stop-opacity:0"/>
						<stop  offset="9.520561e-02" style="stop-color:#F7F7F8;stop-opacity:9.520561e-02"/>
						<stop  offset="0.2447" style="stop-color:#E0E2E4;stop-opacity:0.2447"/>
						<stop  offset="0.4297" style="stop-color:#BCBFC3;stop-opacity:0.4297"/>
						<stop  offset="0.6432" style="stop-color:#898F96;stop-opacity:0.6432"/>
						<stop  offset="0.8776" style="stop-color:#49525D;stop-opacity:0.8776"/>
						<stop  offset="1" style="stop-color:#242F3D"/>
					</linearGradient>
					<path class="st28" d="M29.4,71.7c-0.5-1.1-1-2.2-1.5-3.3c-3.7,1.2-7.2,1.9-8.7,0.4c-0.2-0.2-0.3-0.3-0.4-0.5l-2.6,7.5
						c2.3,1.2,5.1,1.6,8.4,1.1c2.1-0.3,4.3-0.9,6.4-1.7C30.5,74,29.9,72.8,29.4,71.7z"/>
				</g>
				<g>
					
						<linearGradient id="SVGID_28_" gradientUnits="userSpaceOnUse" x1="42.3028" y1="84.8451" x2="42.3028" y2="69.4209" gradientTransform="matrix(1 0 0 1 21.4049 -16.4118)">
						<stop  offset="0" style="stop-color:#00A79D"/>
						<stop  offset="0.2114" style="stop-color:#48C0B9;stop-opacity:0.7886"/>
						<stop  offset="0.4227" style="stop-color:#89D6D2;stop-opacity:0.5773"/>
						<stop  offset="0.6144" style="stop-color:#BCE8E5;stop-opacity:0.3856"/>
						<stop  offset="0.7804" style="stop-color:#E0F4F3;stop-opacity:0.2196"/>
						<stop  offset="0.9146" style="stop-color:#F7FCFC;stop-opacity:8.541995e-02"/>
						<stop  offset="1" style="stop-color:#FFFFFF;stop-opacity:0"/>
					</linearGradient>
					<path class="st29" d="M66,53c-3.1,1.5-5.9,3-7.9,5c-2,2-3.5,4.8-5,7.9c0.9,0.3,1.8,0.7,2.8,1c1.4,0.5,2.8,1.1,4.2,1.5
						c1-2.1,2.1-4.1,3.2-5.2c1.6-1.6,5.1-3.2,8.4-4.7c0.9-0.4,1.8-0.8,2.8-1.3L66,53z"/>
					
						<linearGradient id="SVGID_29_" gradientUnits="userSpaceOnUse" x1="28.6764" y1="102.4709" x2="28.6764" y2="89.0542" gradientTransform="matrix(1 0 0 1 21.4049 -16.4118)">
						<stop  offset="0" style="stop-color:#FFFFFF;stop-opacity:0"/>
						<stop  offset="8.541995e-02" style="stop-color:#F7FCFC;stop-opacity:8.541995e-02"/>
						<stop  offset="0.2196" style="stop-color:#E0F4F3;stop-opacity:0.2196"/>
						<stop  offset="0.3856" style="stop-color:#BCE8E5;stop-opacity:0.3856"/>
						<stop  offset="0.5773" style="stop-color:#89D6D2;stop-opacity:0.5773"/>
						<stop  offset="0.7886" style="stop-color:#48C0B9;stop-opacity:0.7886"/>
						<stop  offset="1" style="stop-color:#00A79D"/>
					</linearGradient>
					<path class="st30" d="M53.2,73.9c-1.1-0.4-2.3-0.8-3.4-1.2c-1.8,3.5-3.7,6.4-5.9,6.4c-0.2,0-0.4,0-0.7-0.1l3.5,7.1
						c2.5-0.7,4.7-2.4,6.7-5.1c1.3-1.7,2.4-3.7,3.4-5.8C55.6,74.8,54.4,74.3,53.2,73.9z"/>
				</g>
			</g>
			
				<linearGradient id="SVGID_30_" gradientUnits="userSpaceOnUse" x1="173.9612" y1="-60.5343" x2="207.0823" y2="-60.5343" gradientTransform="matrix(0.7071 -0.7071 0.7071 0.7071 -78.4375 214.4948)">
				<stop  offset="0" style="stop-color:#FFFFFF"/>
				<stop  offset="0.797" style="stop-color:#FFFFFF;stop-opacity:0"/>
			</linearGradient>
			<path class="st31" d="M5.2,52c-5.3-4.9,4.9-11,7.2-12.4c2-1.3,4.5-2.4,6.9-3.5c4.1-1.9,7.9-3.6,10.5-6.2l-5.3-5.2
				c-1.6,1.6-5.1,3.2-8.4,4.7c-3.3,1.5-6.6,3-9.4,5c-3.7,2.7-5.5,5.9-5.5,9.5C1.4,47,2.7,49.7,5.2,52C5.2,52.1,5.2,52,5.2,52z"/>
			
				<linearGradient id="SVGID_31_" gradientUnits="userSpaceOnUse" x1="344.4193" y1="-0.5162" x2="377.5401" y2="-0.5162" gradientTransform="matrix(0 -1 1 0 17.9545 421.5529)">
				<stop  offset="0" style="stop-color:#FFFFFF"/>
				<stop  offset="0.797" style="stop-color:#FFFFFF;stop-opacity:0"/>
			</linearGradient>
			<path class="st32" d="M22.2,77.1c-7.2,0.3-4.4-11.3-3.6-13.8c0.5-2.3,1.5-4.9,2.4-7.4c1.6-4.2,3.1-8.2,3.1-11.8l-7.4,0
				c0,2.3-1.3,5.8-2.6,9.2c-1.3,3.4-2.6,6.8-3.1,10.2c-0.7,4.5,0.3,8.1,2.8,10.6C16,76.2,18.8,77.2,22.2,77.1
				C22.3,77.1,22.2,77.1,22.2,77.1z"/>
			
				<linearGradient id="SVGID_32_" gradientUnits="userSpaceOnUse" x1="422.5942" y1="162.6423" x2="455.7153" y2="162.6423" gradientTransform="matrix(-0.7071 -0.7071 0.7071 -0.7071 232.4493 499.9904)">
				<stop  offset="0" style="stop-color:#FFFFFF"/>
				<stop  offset="0.797" style="stop-color:#FFFFFF;stop-opacity:0"/>
			</linearGradient>
			<path class="st33" d="M52,82.7c-4.9,5.3-11-4.9-12.4-7.2c-1.3-2-2.4-4.5-3.5-6.9c-1.9-4.1-3.6-7.9-6.2-10.5l-5.2,5.3
				c1.6,1.6,3.2,5.1,4.7,8.4c1.5,3.3,3,6.6,5,9.4c2.7,3.7,5.9,5.5,9.5,5.5C47,86.6,49.7,85.3,52,82.7C52,82.7,52,82.7,52,82.7z"/>
			
				<linearGradient id="SVGID_33_" gradientUnits="userSpaceOnUse" x1="362.4196" y1="333.1004" x2="395.5403" y2="333.1004" gradientTransform="matrix(-1 0 0 -1 439.5074 403.5984)">
				<stop  offset="0" style="stop-color:#FFFFFF"/>
				<stop  offset="0.797" style="stop-color:#FFFFFF;stop-opacity:0"/>
			</linearGradient>
			<path class="st34" d="M77,65.7c0.3,7.2-11.3,4.4-13.8,3.6c-2.3-0.5-4.9-1.5-7.4-2.4c-4.2-1.6-8.2-3.1-11.8-3.1l0,7.4
				c2.3,0,5.8,1.3,9.2,2.6c3.4,1.3,6.8,2.6,10.2,3.1c4.5,0.7,8.1-0.3,10.6-2.8C76.2,72,77.2,69.1,77,65.7C77.1,65.7,77,65.7,77,65.7
				z"/>
			
				<linearGradient id="SVGID_34_" gradientUnits="userSpaceOnUse" x1="199.4177" y1="411.2754" x2="232.5387" y2="411.2754" gradientTransform="matrix(-0.7071 0.7071 -0.7071 -0.7071 517.9449 189.1036)">
				<stop  offset="0" style="stop-color:#FFFFFF"/>
				<stop  offset="0.797" style="stop-color:#FFFFFF;stop-opacity:0"/>
			</linearGradient>
			<path class="st35" d="M82.7,35.9c5.3,4.9-4.9,11-7.2,12.4c-2,1.3-4.5,2.4-6.9,3.5c-4.1,1.9-7.9,3.6-10.5,6.2l5.3,5.2
				c1.6-1.6,5.1-3.2,8.4-4.7c3.3-1.5,6.6-3,9.4-5c3.7-2.7,5.5-5.9,5.5-9.5C86.5,41,85.2,38.3,82.7,35.9
				C82.7,35.9,82.7,35.9,82.7,35.9z"/>
			
				<linearGradient id="SVGID_35_" gradientUnits="userSpaceOnUse" x1="28.803" y1="351.1007" x2="61.9238" y2="351.1007" gradientTransform="matrix(0 1 -1 0 421.5529 -17.9545)">
				<stop  offset="0" style="stop-color:#FFFFFF"/>
				<stop  offset="0.797" style="stop-color:#FFFFFF;stop-opacity:0"/>
			</linearGradient>
			<path class="st36" d="M65.7,10.9c7.2-0.3,4.4,11.3,3.6,13.8c-0.5,2.3-1.5,4.9-2.4,7.4c-1.6,4.2-3.1,8.2-3.1,11.8l7.4,0
				c0-2.3,1.3-5.8,2.6-9.2c1.3-3.4,2.6-6.8,3.1-10.2c0.7-4.5-0.3-8.1-2.8-10.6C71.9,11.8,69.1,10.7,65.7,10.9
				C65.6,10.9,65.7,10.9,65.7,10.9z"/>
			
				<linearGradient id="SVGID_36_" gradientUnits="userSpaceOnUse" x1="-49.2154" y1="188.0988" x2="-16.0943" y2="188.0988" gradientTransform="matrix(0.7071 0.7071 -0.7071 0.7071 207.0581 -96.392)">
				<stop  offset="0" style="stop-color:#FFFFFF"/>
				<stop  offset="0.797" style="stop-color:#FFFFFF;stop-opacity:0"/>
			</linearGradient>
			<path class="st37" d="M35.9,5.2c4.9-5.3,11,4.9,12.4,7.2c1.3,2,2.4,4.5,3.5,6.9c1.9,4.1,3.6,7.9,6.2,10.5l5.2-5.3
				c-1.6-1.6-3.2-5.1-4.7-8.4c-1.5-3.3-3-6.6-5-9.4c-2.7-3.7-5.9-5.5-9.5-5.5C40.9,1.4,38.2,2.7,35.9,5.2
				C35.9,5.2,35.9,5.2,35.9,5.2z"/>
			<linearGradient id="SVGID_37_" gradientUnits="userSpaceOnUse" x1="10.8028" y1="17.4841" x2="43.9235" y2="17.4841">
				<stop  offset="0" style="stop-color:#FFFFFF"/>
				<stop  offset="0.797" style="stop-color:#FFFFFF;stop-opacity:0"/>
			</linearGradient>
			<path class="st38" d="M10.9,22.3c-0.3-7.2,11.3-4.4,13.8-3.6c2.3,0.5,4.9,1.5,7.4,2.4c4.2,1.6,8.2,3.1,11.8,3.1l0-7.4
				c-2.3,0-5.8-1.3-9.2-2.6c-3.4-1.3-6.8-2.6-10.2-3.1c-4.5-0.7-8.1,0.3-10.6,2.8C11.7,16,10.7,18.9,10.9,22.3
				C10.8,22.3,10.9,22.3,10.9,22.3z"/>
			<g>
				<defs>
					<path id="SVGID_38_" d="M10.9,22.3c-0.3-7.2,11.3-4.4,13.8-3.6c2.3,0.5,4.9,1.5,7.4,2.4c4.2,1.6,8.2,3.1,11.8,3.1l0-7.4
						c-2.3,0-5.8-1.3-9.2-2.6c-3.4-1.3-6.8-2.6-10.2-3.1c-4.5-0.7-8.1,0.3-10.6,2.8C11.7,16,10.7,18.9,10.9,22.3
						C10.8,22.3,10.9,22.3,10.9,22.3z"/>
				</defs>
				<clipPath id="SVGID_39_">
					<use xlink:href="#SVGID_38_"  style="overflow:visible;"/>
				</clipPath>
				<g class="st39">
					<linearGradient id="SVGID_40_" gradientUnits="userSpaceOnUse" x1="8.8442" y1="20.1829" x2="43.9257" y2="20.1829">
						<stop  offset="0" style="stop-color:#FFFFFF"/>
						<stop  offset="1" style="stop-color:#FFFFFF;stop-opacity:0"/>
					</linearGradient>
					<path class="st40" d="M10.8,22.4L10.8,22.4L10.8,22.4c-0.2-0.8-0.3-1.7-0.1-2.6c0.2-0.9,0.9-1.7,1.6-2.3
						c0.7-0.6,1.6-0.9,2.4-1.2c0.8-0.2,1.7-0.4,2.5-0.4c1.7-0.1,3.3,0,4.9,0.2c0.8,0.1,1.6,0.3,2.4,0.5l0.6,0.1l0.5,0.1
						c0.4,0.1,0.8,0.2,1.2,0.3c3.1,0.9,5.9,2.2,8.6,3.5c1.4,0.6,2.7,1.3,4.1,1.9c1.4,0.6,2.8,1.1,4.3,1.6c-0.8,0.2-1.6,0.3-2.4,0.4
						c-0.8,0.1-1.6,0-2.4,0c-1.6-0.1-3.2-0.5-4.7-0.8c-1.5-0.4-3-0.8-4.4-1.3c-1.4-0.5-2.9-0.9-4.3-1.3l-1-0.3l-0.6-0.2l-0.5-0.1
						c-0.7-0.2-1.4-0.4-2.1-0.6c-1.4-0.3-2.8-0.6-4.2-0.8c-1.4-0.1-2.8-0.2-4,0.2c-0.6,0.2-1.1,0.5-1.5,1
						C11.3,20.8,11.1,21.5,10.8,22.4L10.8,22.4L10.8,22.4z"/>
				</g>
			</g>
			<g class="st41">
				<defs>
					<path id="SVGID_41_" class="st41" d="M5.2,52c-5.3-4.9,4.9-11,7.2-12.4c2-1.3,4.5-2.4,6.9-3.5c4.1-1.9,7.9-3.6,10.5-6.2
						l-5.3-5.2c-1.6,1.6-5.1,3.2-8.4,4.7c-3.3,1.5-6.6,3-9.4,5c-3.7,2.7-5.5,5.9-5.5,9.5C1.4,47,2.7,49.7,5.2,52
						C5.2,52.1,5.2,52,5.2,52z"/>
				</defs>
				<clipPath id="SVGID_42_">
					<use xlink:href="#SVGID_41_"  style="overflow:visible;"/>
				</clipPath>
				<g class="st42">
					<linearGradient id="SVGID_43_" gradientUnits="userSpaceOnUse" x1="2.2902" y1="51.9763" x2="27.0965" y2="27.17">
						<stop  offset="0" style="stop-color:#FFFFFF"/>
						<stop  offset="1" style="stop-color:#FFFFFF;stop-opacity:0"/>
					</linearGradient>
					<path class="st43" d="M5.2,52.1L5.2,52.1L5.2,52.1c-0.7-0.4-1.4-1-1.9-1.8c-0.5-0.8-0.6-1.8-0.5-2.7c0.1-0.9,0.5-1.8,0.9-2.6
						c0.4-0.8,0.9-1.5,1.5-2.1c1.1-1.3,2.3-2.4,3.6-3.3c0.6-0.5,1.3-0.9,2-1.4l0.5-0.3l0.4-0.3c0.4-0.2,0.7-0.4,1.1-0.6
						c2.8-1.5,5.7-2.6,8.6-3.6c1.4-0.5,2.8-1,4.2-1.6c1.4-0.5,2.8-1.2,4.2-1.9c-0.4,0.7-0.9,1.3-1.4,1.9c-0.5,0.6-1.1,1.1-1.7,1.7
						c-1.2,1-2.6,1.9-3.9,2.7c-1.3,0.8-2.7,1.5-4.1,2.2c-1.3,0.7-2.7,1.4-4,2.1l-0.9,0.5l-0.6,0.3l-0.5,0.3
						c-0.6,0.3-1.3,0.7-1.9,1.1c-1.2,0.8-2.4,1.6-3.5,2.4c-1.1,0.9-2.1,1.8-2.7,2.9c-0.3,0.5-0.4,1.1-0.4,1.8
						C4.5,50.6,4.8,51.3,5.2,52.1L5.2,52.1L5.2,52.1z"/>
				</g>
			</g>
			<g class="st44">
				<defs>
					<path id="SVGID_44_" class="st44" d="M22.2,77.1c-7.2,0.3-4.4-11.3-3.6-13.8c0.5-2.3,1.5-4.9,2.4-7.4c1.6-4.2,3.1-8.2,3.1-11.8
						l-7.4,0c0,2.3-1.3,5.8-2.6,9.2c-1.3,3.4-2.6,6.8-3.1,10.2c-0.7,4.5,0.3,8.1,2.8,10.6C16,76.2,18.8,77.2,22.2,77.1
						C22.3,77.1,22.2,77.1,22.2,77.1z"/>
				</defs>
				<clipPath id="SVGID_45_">
					<use xlink:href="#SVGID_44_"  style="overflow:visible;"/>
				</clipPath>
				<g class="st45">
					<linearGradient id="SVGID_46_" gradientUnits="userSpaceOnUse" x1="20.1371" y1="79.0921" x2="20.1371" y2="44.0107">
						<stop  offset="0" style="stop-color:#FFFFFF"/>
						<stop  offset="1" style="stop-color:#FFFFFF;stop-opacity:0"/>
					</linearGradient>
					<path class="st46" d="M22.3,77.1L22.3,77.1L22.3,77.1c-0.8,0.2-1.7,0.3-2.6,0.1c-0.9-0.2-1.7-0.9-2.3-1.6
						c-0.6-0.7-0.9-1.6-1.2-2.4c-0.2-0.8-0.4-1.7-0.4-2.5c-0.1-1.7,0-3.3,0.2-4.9c0.1-0.8,0.3-1.6,0.5-2.4l0.1-0.6l0.1-0.5
						c0.1-0.4,0.2-0.8,0.3-1.2c0.9-3.1,2.2-5.9,3.5-8.6c0.6-1.4,1.3-2.7,1.9-4.1c0.6-1.4,1.1-2.8,1.6-4.3c0.2,0.8,0.3,1.6,0.4,2.4
						c0.1,0.8,0,1.6,0,2.4c-0.1,1.6-0.5,3.2-0.8,4.7c-0.4,1.5-0.8,3-1.3,4.4c-0.5,1.4-0.9,2.9-1.3,4.3l-0.3,1l-0.2,0.6l-0.1,0.5
						c-0.2,0.7-0.4,1.4-0.6,2.1c-0.3,1.4-0.6,2.8-0.8,4.2c-0.1,1.4-0.2,2.8,0.2,4c0.2,0.6,0.5,1.1,1,1.5
						C20.8,76.6,21.5,76.9,22.3,77.1L22.3,77.1L22.3,77.1z"/>
				</g>
			</g>
			<g class="st47">
				<defs>
					<path id="SVGID_47_" class="st47" d="M52,82.7c-4.9,5.3-11-4.9-12.4-7.2c-1.3-2-2.4-4.5-3.5-6.9c-1.9-4.1-3.6-7.9-6.2-10.5
						l-5.2,5.3c1.6,1.6,3.2,5.1,4.7,8.4c1.5,3.3,3,6.6,5,9.4c2.7,3.7,5.9,5.5,9.5,5.5C47,86.6,49.7,85.3,52,82.7
						C52,82.7,52,82.7,52,82.7z"/>
				</defs>
				<clipPath id="SVGID_48_">
					<use xlink:href="#SVGID_47_"  style="overflow:visible;"/>
				</clipPath>
				<g class="st48">
					<linearGradient id="SVGID_49_" gradientUnits="userSpaceOnUse" x1="51.9306" y1="85.6461" x2="27.1242" y2="60.8398">
						<stop  offset="0" style="stop-color:#FFFFFF"/>
						<stop  offset="1" style="stop-color:#FFFFFF;stop-opacity:0"/>
					</linearGradient>
					<path class="st49" d="M52.1,82.7L52.1,82.7L52.1,82.7c-0.4,0.7-1,1.4-1.8,1.9c-0.8,0.5-1.8,0.6-2.7,0.5
						c-0.9-0.1-1.8-0.5-2.6-0.9c-0.8-0.4-1.5-0.9-2.1-1.5c-1.3-1.1-2.4-2.3-3.3-3.6c-0.5-0.6-0.9-1.3-1.4-2l-0.3-0.5l-0.3-0.4
						c-0.2-0.4-0.4-0.7-0.6-1.1c-1.5-2.8-2.6-5.7-3.6-8.6c-0.5-1.4-1-2.8-1.6-4.2c-0.5-1.4-1.2-2.8-1.9-4.2c0.7,0.4,1.3,0.9,1.9,1.4
						c0.6,0.5,1.1,1.1,1.7,1.7c1,1.2,1.9,2.6,2.7,3.9c0.8,1.3,1.5,2.7,2.2,4.1c0.7,1.3,1.4,2.7,2.1,4l0.5,0.9l0.3,0.6l0.3,0.5
						c0.3,0.6,0.7,1.3,1.1,1.9c0.8,1.2,1.6,2.4,2.4,3.5c0.9,1.1,1.8,2.1,2.9,2.7c0.5,0.3,1.1,0.4,1.8,0.4
						C50.6,83.4,51.3,83.1,52.1,82.7L52.1,82.7L52.1,82.7z"/>
				</g>
			</g>
			<g class="st50">
				<defs>
					<path id="SVGID_50_" class="st50" d="M77,65.7c0.3,7.2-11.3,4.4-13.8,3.6c-2.3-0.5-4.9-1.5-7.4-2.4c-4.2-1.6-8.2-3.1-11.8-3.1
						l0,7.4c2.3,0,5.8,1.3,9.2,2.6c3.4,1.3,6.8,2.6,10.2,3.1c4.5,0.7,8.1-0.3,10.6-2.8C76.2,72,77.2,69.1,77,65.7
						C77.1,65.7,77,65.7,77,65.7z"/>
				</defs>
				<clipPath id="SVGID_51_">
					<use xlink:href="#SVGID_50_"  style="overflow:visible;"/>
				</clipPath>
				<g class="st51">
					<linearGradient id="SVGID_52_" gradientUnits="userSpaceOnUse" x1="79.0463" y1="67.7992" x2="43.9649" y2="67.7992">
						<stop  offset="0" style="stop-color:#FFFFFF"/>
						<stop  offset="1" style="stop-color:#FFFFFF;stop-opacity:0"/>
					</linearGradient>
					<path class="st52" d="M77.1,65.6L77.1,65.6L77.1,65.6c0.2,0.8,0.3,1.7,0.1,2.6c-0.2,0.9-0.9,1.7-1.6,2.3
						c-0.7,0.6-1.6,0.9-2.4,1.2c-0.8,0.2-1.7,0.4-2.5,0.4c-1.7,0.1-3.3,0-4.9-0.2c-0.8-0.1-1.6-0.3-2.4-0.5l-0.6-0.1l-0.5-0.1
						c-0.4-0.1-0.8-0.2-1.2-0.3c-3.1-0.9-5.9-2.2-8.6-3.5c-1.4-0.6-2.7-1.3-4.1-1.9c-1.4-0.6-2.8-1.1-4.3-1.6
						c0.8-0.2,1.6-0.3,2.4-0.4c0.8-0.1,1.6,0,2.4,0c1.6,0.1,3.2,0.5,4.7,0.8c1.5,0.4,3,0.8,4.4,1.3c1.4,0.5,2.9,0.9,4.3,1.3l1,0.3
						l0.6,0.2l0.5,0.1c0.7,0.2,1.4,0.4,2.1,0.6c1.4,0.3,2.8,0.6,4.2,0.8c1.4,0.1,2.8,0.2,4-0.2c0.6-0.2,1.1-0.5,1.5-1
						C76.6,67.2,76.8,66.5,77.1,65.6L77.1,65.6L77.1,65.6z"/>
				</g>
			</g>
			<g class="st47">
				<defs>
					<path id="SVGID_53_" class="st47" d="M82.7,35.9c5.3,4.9-4.9,11-7.2,12.4c-2,1.3-4.5,2.4-6.9,3.5c-4.1,1.9-7.9,3.6-10.5,6.2
						l5.3,5.2c1.6-1.6,5.1-3.2,8.4-4.7c3.3-1.5,6.6-3,9.4-5c3.7-2.7,5.5-5.9,5.5-9.5C86.5,41,85.2,38.3,82.7,35.9
						C82.7,35.9,82.7,35.9,82.7,35.9z"/>
				</defs>
				<clipPath id="SVGID_54_">
					<use xlink:href="#SVGID_53_"  style="overflow:visible;"/>
				</clipPath>
				<g class="st53">
					<linearGradient id="SVGID_55_" gradientUnits="userSpaceOnUse" x1="85.6004" y1="36.0058" x2="60.7941" y2="60.8121">
						<stop  offset="0" style="stop-color:#FFFFFF"/>
						<stop  offset="1" style="stop-color:#FFFFFF;stop-opacity:0"/>
					</linearGradient>
					<path class="st54" d="M82.7,35.9L82.7,35.9L82.7,35.9c0.7,0.4,1.4,1,1.9,1.8c0.5,0.8,0.6,1.8,0.5,2.7c-0.1,0.9-0.5,1.8-0.9,2.6
						c-0.4,0.8-0.9,1.5-1.5,2.1c-1.1,1.3-2.3,2.4-3.6,3.3c-0.6,0.5-1.3,0.9-2,1.4L76.5,50l-0.4,0.3c-0.4,0.2-0.7,0.4-1.1,0.6
						c-2.8,1.5-5.7,2.6-8.6,3.6c-1.4,0.5-2.8,1-4.2,1.6c-1.4,0.5-2.8,1.2-4.2,1.9c0.4-0.7,0.9-1.3,1.4-1.9c0.5-0.6,1.1-1.1,1.7-1.7
						c1.2-1,2.6-1.9,3.9-2.7c1.3-0.8,2.7-1.5,4.1-2.2c1.3-0.7,2.7-1.4,4-2.1l0.9-0.5l0.6-0.3l0.5-0.3c0.6-0.3,1.3-0.7,1.9-1.1
						c1.2-0.8,2.4-1.6,3.5-2.4c1.1-0.9,2.1-1.8,2.7-2.9c0.3-0.5,0.4-1.1,0.4-1.8C83.4,37.3,83.1,36.6,82.7,35.9L82.7,35.9L82.7,35.9
						z"/>
				</g>
			</g>
			<g class="st44">
				<defs>
					<path id="SVGID_56_" class="st44" d="M65.7,10.9c7.2-0.3,4.4,11.3,3.6,13.8c-0.5,2.3-1.5,4.9-2.4,7.4
						c-1.6,4.2-3.1,8.2-3.1,11.8l7.4,0c0-2.3,1.3-5.8,2.6-9.2c1.3-3.4,2.6-6.8,3.1-10.2c0.7-4.5-0.3-8.1-2.8-10.6
						C71.9,11.8,69.1,10.7,65.7,10.9C65.6,10.9,65.7,10.9,65.7,10.9z"/>
				</defs>
				<clipPath id="SVGID_57_">
					<use xlink:href="#SVGID_56_"  style="overflow:visible;"/>
				</clipPath>
				<g class="st55">
					<linearGradient id="SVGID_58_" gradientUnits="userSpaceOnUse" x1="67.7534" y1="8.89" x2="67.7534" y2="43.9714">
						<stop  offset="0" style="stop-color:#FFFFFF"/>
						<stop  offset="1" style="stop-color:#FFFFFF;stop-opacity:0"/>
					</linearGradient>
					<path class="st56" d="M65.6,10.9L65.6,10.9L65.6,10.9c0.8-0.2,1.7-0.3,2.6-0.1c0.9,0.2,1.7,0.9,2.3,1.6
						c0.6,0.7,0.9,1.6,1.2,2.4c0.2,0.8,0.4,1.7,0.4,2.5c0.1,1.7,0,3.3-0.2,4.9c-0.1,0.8-0.3,1.6-0.5,2.4l-0.1,0.6l-0.1,0.5
						c-0.1,0.4-0.2,0.8-0.3,1.2c-0.9,3.1-2.2,5.9-3.5,8.6c-0.6,1.4-1.3,2.7-1.9,4.1c-0.6,1.4-1.1,2.8-1.6,4.3
						c-0.2-0.8-0.3-1.6-0.4-2.4c-0.1-0.8,0-1.6,0-2.4c0.1-1.6,0.5-3.2,0.8-4.7c0.4-1.5,0.8-3,1.3-4.4c0.5-1.4,0.9-2.9,1.3-4.3l0.3-1
						l0.2-0.6l0.1-0.5c0.2-0.7,0.4-1.4,0.6-2.1c0.3-1.4,0.6-2.8,0.8-4.2c0.1-1.4,0.2-2.8-0.2-4c-0.2-0.6-0.5-1.1-1-1.5
						C67.1,11.4,66.4,11.1,65.6,10.9L65.6,10.9L65.6,10.9z"/>
				</g>
			</g>
			<g class="st41">
				<defs>
					<path id="SVGID_59_" class="st41" d="M35.9,5.2c4.9-5.3,11,4.9,12.4,7.2c1.3,2,2.4,4.5,3.5,6.9c1.9,4.1,3.6,7.9,6.2,10.5
						l5.2-5.3c-1.6-1.6-3.2-5.1-4.7-8.4c-1.5-3.3-3-6.6-5-9.4c-2.7-3.7-5.9-5.5-9.5-5.5C40.9,1.4,38.2,2.7,35.9,5.2
						C35.9,5.2,35.9,5.2,35.9,5.2z"/>
				</defs>
				<clipPath id="SVGID_60_">
					<use xlink:href="#SVGID_59_"  style="overflow:visible;"/>
				</clipPath>
				<g class="st57">
					<linearGradient id="SVGID_61_" gradientUnits="userSpaceOnUse" x1="35.96" y1="2.336" x2="60.7663" y2="27.1423">
						<stop  offset="0" style="stop-color:#FFFFFF"/>
						<stop  offset="1" style="stop-color:#FFFFFF;stop-opacity:0"/>
					</linearGradient>
					<path class="st58" d="M35.8,5.3L35.8,5.3L35.8,5.3c0.4-0.7,1-1.4,1.8-1.9c0.8-0.5,1.8-0.6,2.7-0.5c0.9,0.1,1.8,0.5,2.6,0.9
						c0.8,0.4,1.5,0.9,2.1,1.5c1.3,1.1,2.4,2.3,3.3,3.6c0.5,0.6,0.9,1.3,1.4,2l0.3,0.5l0.3,0.4c0.2,0.4,0.4,0.7,0.6,1.1
						c1.5,2.8,2.6,5.7,3.6,8.6c0.5,1.4,1,2.8,1.6,4.2c0.5,1.4,1.2,2.8,1.9,4.2c-0.7-0.4-1.3-0.9-1.9-1.4c-0.6-0.5-1.1-1.1-1.7-1.7
						c-1-1.2-1.9-2.6-2.7-3.9c-0.8-1.3-1.5-2.7-2.2-4.1c-0.7-1.3-1.4-2.7-2.1-4l-0.5-0.9l-0.3-0.6l-0.3-0.5
						c-0.3-0.6-0.7-1.3-1.1-1.9c-0.8-1.2-1.6-2.4-2.4-3.5c-0.9-1.1-1.8-2.1-2.9-2.7c-0.5-0.3-1.1-0.4-1.8-0.4
						C37.3,4.5,36.6,4.8,35.8,5.3L35.8,5.3L35.8,5.3z"/>
				</g>
			</g>
		</g>
	</g>
</g>
<g id="Слой_3">
	<rect x="101.7" y="31.1" class="st59" width="521.5" height="141.2"/>
	<text transform="matrix(1 0 0 1 101.7034 55.3558)" class="st60 st61 st62 st63">REVIVAL TECHOLOGY LLC</text>
</g>
</svg>
