<?xml version="1.0" encoding="utf-8"?>
<!-- Generator: Adobe Illustrator 19.2.1, SVG Export Plug-In . SVG Version: 6.00 Build 0)  -->
<svg version="1.1" id="Layer_1" xmlns="http://www.w3.org/2000/svg" xmlns:xlink="http://www.w3.org/1999/xlink" x="0px" y="0px"
	 viewBox="0 0 57.6 56.2" style="enable-background:new 0 0 57.6 56.2;" xml:space="preserve">
<style type="text/css">
	.st0{fill:#E6E6E6;stroke:#284F56;stroke-width:2;stroke-miterlimit:10;}
	.st1{fill:#3FA9F5;}
	
		.st2{clip-path:url(#SVGID_4_);fill:#3FA9F5;stroke:#314E55;stroke-width:2;stroke-linecap:round;stroke-linejoin:round;stroke-miterlimit:10;}
	.st3{fill:none;stroke:#314E55;stroke-width:2;stroke-linecap:round;stroke-linejoin:round;stroke-miterlimit:10;}
</style>
<path class="st0" d="M11.8,33C6,33,1.7,28.6,1.7,22.8c0-5.7,4.7-10.4,10.5-10.4h0.1C13.1,6.5,18.2,2,24.4,2c5,0,9.3,3,11.2,7.3
	c2-1.3,4.5-2.1,7.1-2.1c7.2,0,13.1,5.8,13.1,13c0,7.1-5.7,12.9-12.9,13L42.8,33C42.8,33,11.8,33,11.8,33z"/>
<path class="st0" d="M50.8,20.2c0-4.4-3.6-8-8-8"/>
<g>
	<g>
		<path id="SVGID_1_" class="st1" d="M22.8,42.2h11v6.5c0,3-2.5,5.5-5.5,5.5s-5.5-2.5-5.5-5.5V42.2z"/>
	</g>
	<g>
		<defs>
			<path id="SVGID_3_" d="M22.8,42.2h11v6.5c0,3-2.5,5.5-5.5,5.5s-5.5-2.5-5.5-5.5V42.2z"/>
		</defs>
		<clipPath id="SVGID_4_">
			<use xlink:href="#SVGID_3_"  style="overflow:visible;"/>
		</clipPath>
		<path class="st2" d="M22.8,42.2h11v6.5c0,3-2.5,5.5-5.5,5.5s-5.5-2.5-5.5-5.5V42.2z"/>
	</g>
	<g>
		<path id="SVGID_2_" class="st3" d="M22.8,42.2h11v6.5c0,3-2.5,5.5-5.5,5.5s-5.5-2.5-5.5-5.5V42.2z"/>
	</g>
</g>
<line class="st3" x1="30.8" y1="42.2" x2="30.8" y2="37.2"/>
<line class="st3" x1="25.8" y1="42.2" x2="25.8" y2="37.2"/>
</svg>
