<?xml version="1.0" encoding="utf-8"?>
<!-- Generator: Adobe Illustrator 19.2.1, SVG Export Plug-In . SVG Version: 6.00 Build 0)  -->
<svg version="1.1" id="Layer_1" xmlns="http://www.w3.org/2000/svg" xmlns:xlink="http://www.w3.org/1999/xlink" x="0px" y="0px"
	 viewBox="0 0 57.9 45.7" style="enable-background:new 0 0 57.9 45.7;" xml:space="preserve">
<style type="text/css">
	.st0{fill:#3A7BD5;stroke:#284F56;stroke-width:2;stroke-miterlimit:10;}
	.st1{fill:#E6E6E6;stroke:#284F56;stroke-width:2;stroke-linecap:round;stroke-linejoin:round;stroke-miterlimit:10;}
	.st2{fill:#3A7BD5;stroke:#284F56;stroke-width:2;stroke-linecap:round;stroke-linejoin:round;stroke-miterlimit:10;}
</style>
<path class="st0" d="M23.5,33.7h19.4l0,0c7.1-0.1,12.9-6,12.9-13.3c0-7.4-5.9-13.3-13.1-13.3c-2.6,0-5.1,0.8-7.1,2.1
	c-1.9-4.4-6.2-7.5-11.2-7.5c-6.2,0-11.2,4.6-12.1,10.7h-0.1c-5.8,0-10.5,4.8-10.5,10.7c0,5.9,4.7,10.7,10.5,10.7h3.6v8.9L23.5,33.7z
	"/>
<circle class="st1" cx="20.3" cy="20.5" r="2.5"/>
<circle class="st1" cx="30.3" cy="20.5" r="2.5"/>
<circle class="st1" cx="40.3" cy="20.5" r="2.5"/>
<path class="st2" d="M13.2,13.5"/>
</svg>
