<?xml version="1.0" encoding="utf-8"?>
<!-- Generator: Adobe Illustrator 19.2.1, SVG Export Plug-In . SVG Version: 6.00 Build 0)  -->
<svg version="1.1" id="Layer_1" xmlns="http://www.w3.org/2000/svg" xmlns:xlink="http://www.w3.org/1999/xlink" x="0px" y="0px"
	 viewBox="0 0 64 56.4" style="enable-background:new 0 0 64 56.4;" xml:space="preserve">
<style type="text/css">
	.st0{clip-path:url(#SVGID_2_);}
	.st1{clip-path:url(#SVGID_4_);fill-rule:evenodd;clip-rule:evenodd;fill:#3A7BD5;}
	
		.st2{clip-path:url(#SVGID_6_);fill:none;stroke:#314E55;stroke-width:4;stroke-linecap:round;stroke-linejoin:round;stroke-miterlimit:10;}
	.st3{fill:none;stroke:#314E55;stroke-width:2;stroke-linecap:square;stroke-linejoin:round;stroke-miterlimit:10;}
	.st4{fill:none;stroke:#314E55;stroke-width:2;stroke-linecap:round;stroke-linejoin:round;stroke-miterlimit:10;}
</style>
<g>
	<defs>
		<path id="SVGID_1_" d="M45.2,4.3L28.9,20.6c-2.7,2.7-2.7,7.2,0,9.9c2.7,2.7,7.2,2.7,9.9,0l16.3-16.3c2.7-2.7,2.7-7.2,0-9.9
			C52.3,1.6,47.9,1.6,45.2,4.3z M46.6,5.7c1.9-1.9,5.1-1.9,7.1,0c2,2,2,5.1,0,7.1L37.4,29.1c-1.9,1.9-5.1,1.9-7.1,0
			c-2-2-2-5.1,0-7.1L46.6,5.7z M50.1-28.9L88.3,9.3L33.9,63.7L-4.3,25.5L50.1-28.9z"/>
	</defs>
	<clipPath id="SVGID_2_">
		<use xlink:href="#SVGID_1_"  style="overflow:visible;"/>
	</clipPath>
	<g class="st0">
		<defs>
			<path id="SVGID_3_" d="M45.9,5c2.3-2.3,6.1-2.3,8.5,0c2.3,2.3,2.3,6.1,0,8.5L38.1,29.8c-2.3,2.3-6.1,2.3-8.5,0
				c-2.3-2.3-2.3-6.1,0-8.5L45.9,5z"/>
		</defs>
		<clipPath id="SVGID_4_">
			<use xlink:href="#SVGID_3_"  style="overflow:visible;"/>
		</clipPath>
		<path class="st1" d="M45.9,5c2.3-2.3,6.1-2.3,8.5,0c2.3,2.3,2.3,6.1,0,8.5L38.1,29.8c-2.3,2.3-6.1,2.3-8.5,0
			c-2.3-2.3-2.3-6.1,0-8.5L45.9,5z"/>
	</g>
</g>
<g>
	<defs>
		<path id="SVGID_5_" d="M45.9,5c2.3-2.3,6.1-2.3,8.5,0c2.3,2.3,2.3,6.1,0,8.5L38.1,29.8c-2.3,2.3-6.1,2.3-8.5,0
			c-2.3-2.3-2.3-6.1,0-8.5L45.9,5z"/>
	</defs>
	<clipPath id="SVGID_6_">
		<use xlink:href="#SVGID_5_"  style="overflow:visible;"/>
	</clipPath>
	<path class="st2" d="M45.9,5c2.3-2.3,6.1-2.3,8.5,0c2.3,2.3,2.3,6.1,0,8.5L38.1,29.8c-2.3,2.3-6.1,2.3-8.5,0
		c-2.3-2.3-2.3-6.1,0-8.5L45.9,5z"/>
</g>
<line class="st3" x1="32.4" y1="24.1" x2="35.3" y2="26.9"/>
<polygon class="st4" points="18.3,43.9 31.7,30.5 28.9,27.6 15.5,41.1 14.1,39.7 9.1,48.9 10.5,50.3 19.7,45.3 "/>
</svg>
