<?xml version="1.0" encoding="utf-8"?>
<!-- Generator: Adobe Illustrator 19.2.1, SVG Export Plug-In . SVG Version: 6.00 Build 0)  -->
<svg version="1.1" id="Layer_1" xmlns="http://www.w3.org/2000/svg" xmlns:xlink="http://www.w3.org/1999/xlink" x="0px" y="0px"
	 viewBox="0 0 39.9 36.5" style="enable-background:new 0 0 39.9 36.5;" xml:space="preserve">
<style type="text/css">
	.st0{fill:#3A7BD5;}
	.st1{clip-path:url(#SVGID_6_);fill:#3A7BD5;stroke:#284F56;stroke-width:2;stroke-miterlimit:10;}
	.st2{fill:none;stroke:#284F56;stroke-width:2;stroke-miterlimit:10;}
	.st3{fill:#FFFFFF;}
	.st4{clip-path:url(#SVGID_8_);fill:#E6E6E6;stroke:#284F56;stroke-width:2;stroke-miterlimit:10;}
</style>
<g>
	<g>
		<polygon id="SVGID_1_" class="st0" points="4.3,25.7 26.3,25.7 28.3,32.7 2.3,32.7 		"/>
	</g>
	<g>
		<g>
			<g>
				<defs>
					<polygon id="SVGID_5_" points="4.3,25.7 26.3,25.7 28.3,32.7 2.3,32.7 					"/>
				</defs>
				<clipPath id="SVGID_6_">
					<use xlink:href="#SVGID_5_"  style="overflow:visible;"/>
				</clipPath>
				<polygon class="st1" points="4.3,25.7 26.3,25.7 28.3,32.7 2.3,32.7 				"/>
			</g>
		</g>
	</g>
	<g>
		<polygon id="SVGID_2_" class="st2" points="4.3,25.7 26.3,25.7 28.3,32.7 2.3,32.7 		"/>
	</g>
</g>
<g>
	<g>
		<rect id="SVGID_3_" x="4.3" y="13.7" class="st3" width="22" height="14"/>
	</g>
	<g>
		<g>
			<g>
				<defs>
					<rect id="SVGID_7_" x="4.3" y="13.7" width="22" height="14"/>
				</defs>
				<clipPath id="SVGID_8_">
					<use xlink:href="#SVGID_7_"  style="overflow:visible;"/>
				</clipPath>
				<rect x="4.3" y="13.7" class="st4" width="22" height="14"/>
			</g>
		</g>
	</g>
	<g>
		<rect id="SVGID_4_" x="4.3" y="13.7" class="st2" width="22" height="14"/>
	</g>
</g>
<path class="st2" d="M32.3,16.2c0-4.7-3.8-8.5-8.5-8.5"/>
<path class="st2" d="M38.3,16.2c0-8-6.5-14.5-14.5-14.5"/>
</svg>
