<?xml version="1.0" encoding="utf-8"?>
<!-- Generator: Adobe Illustrator 19.2.1, SVG Export Plug-In . SVG Version: 6.00 Build 0)  -->
<svg version="1.1" id="Layer_1" xmlns="http://www.w3.org/2000/svg" xmlns:xlink="http://www.w3.org/1999/xlink" x="0px" y="0px"
	 viewBox="0 0 45.8 59.4" style="enable-background:new 0 0 45.8 59.4;" xml:space="preserve">
<style type="text/css">
	.st0{fill:none;stroke:#284F56;stroke-width:2;stroke-miterlimit:10;}
	.st1{fill:#EAEAEA;}
	.st2{fill:#3FA9F5;stroke:#284F56;stroke-width:2;stroke-miterlimit:10;}
	.st3{fill:#3A7BD5;}
</style>
<path class="st0" d="M30.9,38.5v8.2h-29v-42c0-1.1,0.9-2,2-2h25c1.1,0,2,0.9,2,2v8.1"/>
<path class="st0" d="M1.9,46.8h29v8c0,1.1-0.9,2-2,2h-25c-1.1,0-2-0.9-2-2C1.9,54.8,1.9,46.8,1.9,46.8z"/>
<path class="st1" d="M29.9,21.4V3.7h-27v42h27V31.1C24.8,30.2,24.8,22.3,29.9,21.4z"/>
<path class="st2" d="M30.9,28.7c1.7,0,3-1.3,3-3s-1.3-3-3-3s-3,1.3-3,3C27.9,27.3,29.3,28.7,30.9,28.7z M25.4,34l-0.9,0.9
	c-0.8,0.8-2,0.8-2.8,0s-0.8-2,0-2.8l0.9-0.9c-0.7-1-1.2-2.2-1.5-3.5h-1.2c-1.1,0-2-0.9-2-2s0.9-2,2-2h1.2c0.3-1.3,0.8-2.5,1.5-3.5
	l-0.9-0.9c-0.8-0.8-0.8-2,0-2.8c0.8-0.8,2-0.8,2.8,0l0.9,0.9c1-0.7,2.2-1.2,3.5-1.5v-1.2c0-1.1,0.9-2,2-2s2,0.9,2,2v1.2
	c1.3,0.3,2.5,0.8,3.5,1.5l0.9-0.9c0.8-0.8,2-0.8,2.8,0s0.8,2,0,2.8l-0.9,0.9c0.7,1,1.2,2.2,1.5,3.5h1.2c1.1,0,2,0.9,2,2s-0.9,2-2,2
	h-1.2c-0.3,1.3-0.8,2.5-1.5,3.5l0.9,0.9c0.8,0.8,0.8,2,0,2.8s-2,0.8-2.8,0L36.4,34c-1,0.7-2.2,1.2-3.5,1.5v1.2c0,1.1-0.9,2-2,2
	s-2-0.9-2-2v-1.2C27.7,35.2,26.5,34.7,25.4,34z"/>
<rect x="2.9" y="47.8" class="st3" width="27" height="8"/>
<circle class="st0" cx="16.4" cy="51.8" r="2"/>
</svg>
